<?xml version="1.0" encoding="UTF-8" standalone="yes"?>
<!DOCTYPE svg PUBLIC "-//W3C//DTD SVG 1.1//EN" "http://www.w3.org/Graphics/SVG/1.1/DTD/svg11.dtd">

<svg width="1000" height="500" viewBox="0 0 1000 500" xmlns="http://www.w3.org/2000/svg" xmlns:xlink="http://www.w3.org/1999/xlink" version="1.1" baseProfile="full">
    <defs>
        <linearGradient id="1055531690084325165882288" x1="100.000000%" x2="100.000000%" y1="0.000000%" y2="100.000000%">
            <stop offset="0%" style="stop-color:#ff9200;stop-opacity:1.000000"></stop>
            <stop offset="100%" style="stop-color:#ff452f;stop-opacity:1.000000"></stop>
        </linearGradient>
    </defs>
    <g transform="scale(1,-1) translate(0,-500)">
        <rect width="1000" height="500" style="fill:rgb(255,255,255)"></rect>
        <path d="M 1.000000 1.000000 L 1001.000000 1.000000 L 1001.000000 501.000000 L 1.000000 501.000000 Z" transform="scale(1.000000,1.000000) translate(-1.000000,-1.000000)" fill="#ffeb93" opacity="1.000000"></path>
        <path d="M 300.612000 150.806000 C 300.612000 233.541569 233.541569 300.612000 150.806000 300.612000 C 68.070431 300.612000 1.000000 233.541569 1.000000 150.806000 C 1.000000 68.070431 68.070431 1.000000 150.806000 1.000000 C 233.541569 1.000000 300.612000 68.070431 300.612000 150.806000 Z" transform="scale(1.000000,1.000000) translate(349.194008,152.502609)" fill="url(#1055531690084325165882288)" opacity="1.000000"></path>
        <path d="M 184.884761 92.828308 L 184.681572 86.554311 L 184.072002 80.394410 L 183.056045 74.348584 L 181.633697 68.416808 L 179.837051 62.641880 L 177.698198 57.066599 L 175.217128 51.690946 L 172.393830 46.514901 L 169.249706 41.545610 L 165.806154 36.790223 L 162.063158 32.248724 L 158.020703 27.921094 L 153.714460 23.857254 L 149.180092 20.107129 L 144.417578 16.670705 L 139.426897 13.547968 L 134.225899 10.746057 L 128.832423 8.272114 L 123.246448 6.126132 L 117.467954 4.308101 L 111.536176 2.860802 L 105.490349 1.827021 L 99.330450 1.206755 L 93.056453 1.000000 L 86.778891 1.206755 L 80.608296 1.827021 L 74.544645 2.860802 L 68.587916 4.308101 L 62.784469 6.126132 L 57.180670 8.272114 L 51.776500 10.746057 L 46.571937 13.547968 L 41.581258 16.670705 L 36.818742 20.107129 L 32.284371 23.857254 L 27.978130 27.921094 L 23.935679 32.248724 L 20.192683 36.790223 L 16.749130 41.545610 L 13.605004 46.514901 L 10.778139 51.690946 L 8.286373 57.066599 L 6.129696 62.641880 L 4.308101 68.416808 L 2.860802 74.348584 L 1.827021 80.394410 L 1.206755 86.554311 L 1.000000 92.828308 L 1.185366 98.610367 L 1.741467 104.092964 L 2.668305 109.276120 L 3.965883 114.159853 L 5.534381 118.772666 L 7.273982 123.143058 L 9.184692 127.271046 L 11.266519 131.156646 L 15.743861 138.229139 L 20.506386 144.389048 L 29.289963 154.313349 L 29.518108 154.997784 L 30.972532 156.224064 L 32.598064 157.165160 L 34.337668 157.792562 L 36.134309 158.077740 L 37.959468 157.992188 L 39.784627 157.507377 L 41.524232 156.651838 L 43.092728 155.454074 L 44.418820 153.999650 L 45.431212 152.374118 L 46.115649 150.634512 L 46.457864 148.837873 L 46.429347 147.026972 L 46.001575 145.244591 L 45.188810 143.576281 L 44.005307 142.107599 L 43.320872 141.423164 L 36.704671 134.635855 L 32.911761 130.158512 L 29.289963 124.825626 L 27.589568 121.824092 L 26.024639 118.580164 L 23.301161 111.365078 L 22.228164 107.361842 L 21.461740 103.052051 L 21.001887 98.435690 L 20.848603 93.512743 L 21.201512 85.877004 L 22.260243 78.483697 L 24.024800 71.332795 L 26.495189 64.424272 L 29.578712 57.850835 L 33.182679 51.705193 L 37.307105 45.987324 L 41.952003 40.697207 L 47.067447 35.888329 L 52.603513 31.614183 L 58.560223 27.874755 L 64.937598 24.670030 L 71.635801 22.099827 L 78.554994 20.263975 L 85.695203 19.162467 L 93.056453 18.795299 L 100.410574 19.162467 L 107.529393 20.263975 L 114.412938 22.099827 L 121.061235 24.670030 L 127.388706 27.874755 L 133.309769 31.614183 L 138.824446 35.888329 L 143.932758 40.697207 L 148.577655 45.987324 L 152.702081 51.705193 L 156.306049 57.850835 L 159.389573 64.424272 L 161.859961 71.332795 L 163.624518 78.483697 L 164.683249 85.877004 L 165.036158 93.512743 L 164.907827 98.428561 L 164.522832 103.023535 L 163.881175 107.297679 L 162.982854 111.251006 L 160.687149 118.366277 L 157.906631 124.540444 L 154.783903 129.830556 L 151.461539 134.293637 L 145.415700 141.423164 L 144.731265 141.879454 L 143.562020 143.447950 L 142.792034 145.187555 L 142.392780 147.012714 L 142.335744 148.837873 L 142.635186 150.634512 L 143.305360 152.374118 L 144.317750 153.999650 L 145.643844 155.454074 L 147.183826 156.687484 L 148.837875 157.535896 L 150.605994 157.999313 L 152.488190 158.077740 L 154.348998 157.799688 L 156.052952 157.193679 L 157.600057 156.259712 L 158.990319 154.997784 L 159.446609 154.313349 L 163.467658 149.721936 L 167.773896 144.389048 L 172.065874 138.229139 L 176.044148 131.156646 L 177.872876 127.271046 L 179.537618 123.143058 L 181.038381 118.772666 L 182.375168 114.159853 L 183.473117 109.276120 L 184.257365 104.092964 L 184.727913 98.610367 L 184.884761 92.828308 Z M 93.740888 192.869832 L 95.715773 192.695160 L 97.533800 192.171142 L 99.194976 191.297776 L 100.699306 190.075057 L 101.946976 188.602806 L 102.838166 186.980842 L 103.372880 185.209158 L 103.551117 183.287747 L 103.551117 102.410393 L 103.372880 100.488982 L 102.838166 98.717298 L 101.946976 97.095333 L 100.699306 95.623083 L 99.194976 94.400364 L 97.533800 93.526997 L 95.715773 93.002980 L 93.740888 92.828308 L 91.858695 93.013675 L 90.090570 93.569779 L 88.479296 94.453839 L 87.067650 95.623083 L 85.884149 97.034728 L 84.957310 98.646002 L 84.358428 100.442643 L 84.158803 102.410393 L 84.158803 183.287747 L 84.358428 185.255497 L 84.957310 187.052137 L 85.884149 188.663408 L 87.067650 190.075057 L 88.479296 191.244304 L 90.090570 192.128361 L 91.858695 192.684462 L 93.740888 192.869832 Z" transform="scale(1.000000,1.000000) translate(407.057619,206.373678)" fill="#000000" opacity="1.000000"></path>
        <path d="M 30.621684 8.874885 Q 21.595854 8.874885 15.235369 15.235369 Q 8.874885 21.595854 8.874885 30.621684 Q 8.874885 39.586938 15.235369 45.947422 Q 21.595854 52.307906 30.621684 52.307906 Q 36.861016 52.307906 42.131131 49.036800 Q 47.219519 45.826270 49.945441 40.495578 L 58.547238 40.495578 Q 55.457860 49.218528 47.885855 54.670372 Q 40.192698 60.243367 30.621684 60.243367 Q 18.324748 60.243367 9.662374 51.580994 Q 1.000000 42.858044 1.000000 30.621684 Q 1.000000 18.324748 9.662374 9.662374 Q 18.324748 1.000000 30.621684 1.000000 L 60.243367 1.000000 L 60.243367 8.874885 Z M 87.623738 8.874885 Q 82.717078 8.874885 79.264244 12.388296 Q 75.750834 15.841130 75.750834 20.747789 Q 75.750834 25.654448 79.264244 29.107283 Q 82.717078 32.560117 87.623738 32.560117 Q 92.530397 32.560117 95.983231 29.107283 Q 99.436065 25.654448 99.436065 20.747789 Q 99.436065 15.841130 95.983231 12.388296 Q 92.530397 8.874885 87.623738 8.874885 Z M 87.623738 40.495578 Q 79.445972 40.495578 73.630672 34.680278 Q 67.875948 28.925555 67.875948 20.747789 Q 67.875948 12.570024 73.630672 6.754724 Q 79.445972 1.000000 87.623738 1.000000 Q 95.801503 1.000000 101.556227 6.754724 Q 107.371527 12.570024 107.371527 20.747789 Q 107.371527 28.925555 101.556227 34.680278 Q 95.801503 40.495578 87.623738 40.495578 Z M 113.489707 1.000000 L 121.364592 1.000000 L 121.364592 60.243367 L 113.489707 60.243367 Z M 130.208694 40.495578 L 130.208694 1.000000 L 138.083579 1.000000 L 138.083579 40.495578 Z M 139.658556 52.307906 Q 139.658556 50.066593 138.023003 48.431040 Q 136.448026 46.795486 134.146137 46.795486 Q 131.844247 46.795486 130.269270 48.431040 Q 128.633717 50.066593 128.633717 52.307906 Q 128.633717 54.609796 130.269270 56.245349 Q 131.844247 57.820326 134.146137 57.820326 Q 136.448026 57.820326 138.023003 56.245349 Q 139.658556 54.609796 139.658556 52.307906 Z M 154.681414 8.874885 L 154.681414 20.747789 Q 154.681414 25.654448 158.194825 29.107283 Q 161.647659 32.560117 166.554318 32.560117 Q 171.460977 32.560117 174.913812 29.107283 Q 178.366646 25.654448 178.366646 20.747789 Q 178.366646 15.841130 174.913812 12.388296 Q 171.460977 8.874885 166.554318 8.874885 Z M 166.554318 40.495578 Q 159.951530 40.495578 154.681414 36.558136 L 154.681414 60.243367 L 146.806529 60.243367 L 146.806529 1.000000 L 166.554318 1.000000 Q 174.732084 1.000000 180.486807 6.754724 Q 186.302107 12.570024 186.302107 20.747789 Q 186.302107 28.925555 180.486807 34.680278 Q 174.732084 40.495578 166.554318 40.495578 Z M 200.052868 1.000000 L 200.052868 20.747789 Q 200.052868 25.654448 203.566279 29.107283 Q 207.019113 32.560117 211.925772 32.560117 L 219.800658 32.560117 L 219.800658 40.495578 L 211.925772 40.495578 Q 203.748007 40.495578 197.932707 34.680278 Q 192.177983 28.925555 192.177983 20.747789 L 192.177983 1.000000 Z M 227.614967 40.495578 L 227.614967 1.000000 L 235.489852 1.000000 L 235.489852 40.495578 Z M 237.064829 52.307906 Q 237.064829 50.066593 235.429276 48.431040 Q 233.854299 46.795486 231.552409 46.795486 Q 229.250520 46.795486 227.675543 48.431040 Q 226.039990 50.066593 226.039990 52.307906 Q 226.039990 54.609796 227.675543 56.245349 Q 229.250520 57.820326 231.552409 57.820326 Q 233.854299 57.820326 235.429276 56.245349 Q 237.064829 54.609796 237.064829 52.307906 Z M 322.355894 52.307906 L 322.355894 60.243367 L 290.795777 60.243367 Q 284.253564 60.243367 279.589209 55.579012 Q 274.985430 50.975233 274.985430 44.433021 Q 274.985430 37.890809 279.589209 33.287029 Q 284.253564 28.622674 290.795777 28.622674 L 304.546538 28.622674 L 304.546538 28.743826 Q 308.665709 28.743826 311.573359 25.836177 Q 314.481009 22.928527 314.481009 18.809356 Q 314.481009 14.690185 311.573359 11.782535 Q 308.665709 8.874885 304.546538 8.874885 L 274.985430 8.874885 L 274.985430 1.000000 L 304.546538 1.000000 Q 311.936815 1.000000 317.146354 6.209539 Q 322.355894 11.419079 322.355894 18.809356 Q 322.355894 26.199633 317.146354 31.409172 Q 311.936815 36.618712 304.546538 36.618712 L 304.546538 36.558136 L 290.795777 36.558136 Q 287.524671 36.558136 285.222781 38.860025 Q 282.860316 41.161915 282.860316 44.433021 Q 282.860316 47.704127 285.222781 50.006017 Q 287.524671 52.307906 290.795777 52.307906 Z M 359.125550 8.874885 Q 350.099720 8.874885 343.739236 15.235369 Q 337.378752 21.595854 337.378752 30.621684 Q 337.378752 39.586938 343.739236 45.947422 Q 350.099720 52.307906 359.125550 52.307906 Q 368.090804 52.307906 374.451288 45.947422 Q 380.811773 39.586938 380.811773 30.621684 Q 380.811773 21.595854 374.451288 15.235369 Q 368.090804 8.874885 359.125550 8.874885 Z M 359.125550 60.243367 Q 346.828614 60.243367 338.166240 51.580994 Q 329.503867 42.858044 329.503867 30.621684 Q 329.503867 18.324748 338.166240 9.662374 Q 346.828614 1.000000 359.125550 1.000000 Q 371.361910 1.000000 380.084860 9.662374 Q 388.747234 18.324748 388.747234 30.621684 Q 388.747234 42.858044 380.084860 51.580994 Q 371.361910 60.243367 359.125550 60.243367 Z" transform="scale(1.000000,1.000000) translate(305.126383,60.358785)" fill="#000000" opacity="1.000000"></path>
    </g>
</svg>